<?xml version="1.0" encoding="us-ascii" standalone="no"?><svg xmlns="http://www.w3.org/2000/svg" xmlns:xlink="http://www.w3.org/1999/xlink" contentStyleType="text/css" height="901px" preserveAspectRatio="none" style="width:625px;height:901px;background:#F7F7FF;" version="1.1" viewBox="0 0 625 901" width="625px" zoomAndPan="magnify"><defs/><g><rect fill="#F7F7FF" height="901" style="stroke:none;stroke-width:1.0;" width="625" x="0" y="0"/><text fill="#000000" font-family="Arial" font-size="14" font-weight="bold" lengthAdjust="spacing" textLength="329" x="141.055" y="23.1318">Envoy + OPA Authorization PoC Architecture &#128737;&#65039;</text><!--cluster KubeCluster--><g id="cluster_KubeCluster"><path d="M9.5,43.0986 L140.5,43.0986 A5.25,5.25 0 0 1 144,46.5986 L151,65.1973 L613.5,65.1973 A3.5,3.5 0 0 1 617,68.6973 L617,891.3386 A3.5,3.5 0 0 1 613.5,894.8386 L9.5,894.8386 A3.5,3.5 0 0 1 6,891.3386 L6,46.5986 A3.5,3.5 0 0 1 9.5,43.0986 " fill="none" style="stroke:#454645;stroke-width:1.0;"/><line style="stroke:#454645;stroke-width:1.0;" x1="6" x2="151" y1="65.1973" y2="65.1973"/><text fill="#000000" font-family="Arial" font-size="14" font-weight="bold" lengthAdjust="spacing" textLength="132" x="10" y="58.2305">Kubernetes Cluster</text></g><!--cluster EnvoyGroup--><g id="cluster_EnvoyGroup"><path d="M33.5,86.0986 L118.5,86.0986 A5.25,5.25 0 0 1 122,89.5986 L129,108.1973 L487.5,108.1973 A3.5,3.5 0 0 1 491,111.6973 L491,584.0386 A3.5,3.5 0 0 1 487.5,587.5386 L33.5,587.5386 A3.5,3.5 0 0 1 30,584.0386 L30,89.5986 A3.5,3.5 0 0 1 33.5,86.0986 " fill="none" style="stroke:#454645;stroke-width:1.0;"/><line style="stroke:#454645;stroke-width:1.0;" x1="30" x2="129" y1="108.1973" y2="108.1973"/><text fill="#000000" font-family="Arial" font-size="14" font-weight="bold" lengthAdjust="spacing" textLength="86" x="34" y="101.2305">Envoy Proxy</text></g><!--cluster EnvoyPod--><g id="cluster_EnvoyPod"><rect fill="#DDEEFF" height="219.19" rx="3.5" ry="3.5" style="stroke:#4477AA;stroke-width:1.0;" width="413" x="54" y="344.3486"/><rect fill="#DDEEFF" height="10" style="stroke:#4477AA;stroke-width:1.0;" width="15" x="447" y="349.3486"/><rect fill="#DDEEFF" height="2" style="stroke:#4477AA;stroke-width:1.0;" width="4" x="445" y="351.3486"/><rect fill="#DDEEFF" height="2" style="stroke:#4477AA;stroke-width:1.0;" width="4" x="445" y="355.3486"/><text fill="#000000" font-family="Arial" font-size="14" font-weight="bold" lengthAdjust="spacing" textLength="70" x="225.5" y="370.4805">EnvoyPod</text></g><!--cluster OPAGroup--><g id="cluster_OPAGroup"><path d="M287.5,635.5386 L368.5,635.5386 A5.25,5.25 0 0 1 372,639.0386 L379,657.6373 L514.5,657.6373 A3.5,3.5 0 0 1 518,661.1373 L518,867.3386 A3.5,3.5 0 0 1 514.5,870.8386 L287.5,870.8386 A3.5,3.5 0 0 1 284,867.3386 L284,639.0386 A3.5,3.5 0 0 1 287.5,635.5386 " fill="none" style="stroke:#454645;stroke-width:1.0;"/><line style="stroke:#454645;stroke-width:1.0;" x1="284" x2="379" y1="657.6373" y2="657.6373"/><text fill="#000000" font-family="Arial" font-size="14" font-weight="bold" lengthAdjust="spacing" textLength="82" x="288" y="650.6705">OPA Engine</text></g><!--cluster EchoGroup--><g id="cluster_EchoGroup"><path d="M33.5,636.0386 L114.5,636.0386 A5.25,5.25 0 0 1 118,639.5386 L125,658.1373 L256.5,658.1373 A3.5,3.5 0 0 1 260,661.6373 L260,867.3386 A3.5,3.5 0 0 1 256.5,870.8386 L33.5,870.8386 A3.5,3.5 0 0 1 30,867.3386 L30,639.5386 A3.5,3.5 0 0 1 33.5,636.0386 " fill="none" style="stroke:#454645;stroke-width:1.0;"/><line style="stroke:#454645;stroke-width:1.0;" x1="30" x2="125" y1="658.1373" y2="658.1373"/><text fill="#000000" font-family="Arial" font-size="14" font-weight="bold" lengthAdjust="spacing" textLength="82" x="34" y="651.1705">Echo Server</text></g><!--entity Client--><g id="elem_Client"><ellipse cx="554" cy="122.6486" fill="#454645" rx="8" ry="8" style="stroke:#454645;stroke-width:0.5;"/><path d="M554,130.6486 L554,157.6486 M541,138.6486 L567,138.6486 M554,157.6486 L541,172.6486 M554,157.6486 L567,172.6486 " fill="none" style="stroke:#454645;stroke-width:0.5;"/><text fill="#454645" font-family="Arial" font-size="14" lengthAdjust="spacing" textLength="93" x="507.5" y="187.2805">Client Request</text></g><!--entity EnvoyService--><g id="elem_EnvoyService"><rect fill="#DDEEFF" height="62.1973" rx="3.5" ry="3.5" style="stroke:#4477AA;stroke-width:0.5;" width="130" x="246" y="121.0986"/><rect fill="#DDEEFF" height="10" style="stroke:#4477AA;stroke-width:0.5;" width="15" x="356" y="126.0986"/><rect fill="#DDEEFF" height="2" style="stroke:#4477AA;stroke-width:0.5;" width="4" x="354" y="128.0986"/><rect fill="#DDEEFF" height="2" style="stroke:#4477AA;stroke-width:0.5;" width="4" x="354" y="132.0986"/><text fill="#000000" font-family="Arial" font-size="14" lengthAdjust="spacing" textLength="90" x="261" y="154.2305">Envoy Service</text><text fill="#000000" font-family="Arial" font-size="14" lengthAdjust="spacing" textLength="77" x="261" y="170.3291">:8080/HTTP</text></g><!--entity EnvoyDeployment--><g id="elem_EnvoyDeployment"><rect fill="#DDEEFF" height="46.0986" rx="3.5" ry="3.5" style="stroke:#4477AA;stroke-width:0.5;" width="159" x="151.5" y="251.2486"/><rect fill="#DDEEFF" height="10" style="stroke:#4477AA;stroke-width:0.5;" width="15" x="290.5" y="256.2486"/><rect fill="#DDEEFF" height="2" style="stroke:#4477AA;stroke-width:0.5;" width="4" x="288.5" y="258.2486"/><rect fill="#DDEEFF" height="2" style="stroke:#4477AA;stroke-width:0.5;" width="4" x="288.5" y="262.2486"/><text fill="#000000" font-family="Arial" font-size="14" lengthAdjust="spacing" textLength="119" x="166.5" y="284.3805">Envoy Deployment</text></g><!--entity Httpmgr--><g id="elem_Httpmgr"><rect fill="#DDEEFF" height="46.0986" rx="3.5" ry="3.5" style="stroke:#4477AA;stroke-width:0.5;" width="214" x="70" y="379.3486"/><rect fill="#DDEEFF" height="10" style="stroke:#4477AA;stroke-width:0.5;" width="15" x="264" y="384.3486"/><rect fill="#DDEEFF" height="2" style="stroke:#4477AA;stroke-width:0.5;" width="4" x="262" y="386.3486"/><rect fill="#DDEEFF" height="2" style="stroke:#4477AA;stroke-width:0.5;" width="4" x="262" y="390.3486"/><text fill="#000000" font-family="Arial" font-size="14" lengthAdjust="spacing" textLength="174" x="85" y="412.4805">HTTP Connection Manager</text></g><!--entity ExtAuthz--><g id="elem_ExtAuthz"><rect fill="#DDEEFF" height="46.0986" rx="3.5" ry="3.5" style="stroke:#4477AA;stroke-width:0.5;" width="132" x="319" y="379.3486"/><rect fill="#DDEEFF" height="10" style="stroke:#4477AA;stroke-width:0.5;" width="15" x="431" y="384.3486"/><rect fill="#DDEEFF" height="2" style="stroke:#4477AA;stroke-width:0.5;" width="4" x="429" y="386.3486"/><rect fill="#DDEEFF" height="2" style="stroke:#4477AA;stroke-width:0.5;" width="4" x="429" y="390.3486"/><text fill="#000000" font-family="Arial" font-size="14" lengthAdjust="spacing" textLength="92" x="334" y="412.4805">ExtAuthz Filter</text></g><!--entity Router--><g id="elem_Router"><rect fill="#DDEEFF" height="46.0986" rx="3.5" ry="3.5" style="stroke:#4477AA;stroke-width:0.5;" width="119" x="157.5" y="501.4486"/><rect fill="#DDEEFF" height="10" style="stroke:#4477AA;stroke-width:0.5;" width="15" x="256.5" y="506.4486"/><rect fill="#DDEEFF" height="2" style="stroke:#4477AA;stroke-width:0.5;" width="4" x="254.5" y="508.4486"/><rect fill="#DDEEFF" height="2" style="stroke:#4477AA;stroke-width:0.5;" width="4" x="254.5" y="512.4486"/><text fill="#000000" font-family="Arial" font-size="14" lengthAdjust="spacing" textLength="79" x="172.5" y="534.5805">Router Filter</text></g><!--entity OPAService--><g id="elem_OPAService"><rect fill="#DDEEFF" height="62.1973" rx="3.5" ry="3.5" style="stroke:#4477AA;stroke-width:0.5;" width="202" x="300" y="670.5386"/><rect fill="#DDEEFF" height="10" style="stroke:#4477AA;stroke-width:0.5;" width="15" x="482" y="675.5386"/><rect fill="#DDEEFF" height="2" style="stroke:#4477AA;stroke-width:0.5;" width="4" x="480" y="677.5386"/><rect fill="#DDEEFF" height="2" style="stroke:#4477AA;stroke-width:0.5;" width="4" x="480" y="681.5386"/><text fill="#000000" font-family="Arial" font-size="14" lengthAdjust="spacing" textLength="80" x="315" y="703.6705">OPA Service</text><text fill="#000000" font-family="Arial" font-size="14" lengthAdjust="spacing" textLength="162" x="315" y="719.7691">:9191/gRPC, :8181/HTTP</text></g><!--entity OPADeployment--><g id="elem_OPADeployment"><rect fill="#DDEEFF" height="46.0986" rx="3.5" ry="3.5" style="stroke:#4477AA;stroke-width:0.5;" width="149" x="325.5" y="808.7386"/><rect fill="#DDEEFF" height="10" style="stroke:#4477AA;stroke-width:0.5;" width="15" x="454.5" y="813.7386"/><rect fill="#DDEEFF" height="2" style="stroke:#4477AA;stroke-width:0.5;" width="4" x="452.5" y="815.7386"/><rect fill="#DDEEFF" height="2" style="stroke:#4477AA;stroke-width:0.5;" width="4" x="452.5" y="819.7386"/><text fill="#000000" font-family="Arial" font-size="14" lengthAdjust="spacing" textLength="109" x="340.5" y="841.8705">OPA Deployment</text></g><!--entity EchoService--><g id="elem_EchoService"><path d="M69.5,681.0386 C69.5,671.0386 121,671.0386 121,671.0386 C121,671.0386 172.5,671.0386 172.5,681.0386 L172.5,722.2359 C172.5,732.2359 121,732.2359 121,732.2359 C121,732.2359 69.5,732.2359 69.5,722.2359 L69.5,681.0386 " fill="#EEFFEE" style="stroke:#66BB66;stroke-width:0.5;"/><path d="M69.5,681.0386 C69.5,691.0386 121,691.0386 121,691.0386 C121,691.0386 172.5,691.0386 172.5,681.0386 " fill="none" style="stroke:#66BB66;stroke-width:0.5;"/><text fill="#454645" font-family="Arial" font-size="14" lengthAdjust="spacing" textLength="83" x="79.5" y="708.1705">Echo Service</text><text fill="#454645" font-family="Arial" font-size="14" lengthAdjust="spacing" textLength="61" x="79.5" y="724.2691">:80/HTTP</text></g><!--entity EchoDeployment--><g id="elem_EchoDeployment"><rect fill="#DDEEFF" height="46.0986" rx="3.5" ry="3.5" style="stroke:#4477AA;stroke-width:0.5;" width="198" x="46" y="808.7386"/><rect fill="#DDEEFF" height="10" style="stroke:#4477AA;stroke-width:0.5;" width="15" x="224" y="813.7386"/><rect fill="#DDEEFF" height="2" style="stroke:#4477AA;stroke-width:0.5;" width="4" x="222" y="815.7386"/><rect fill="#DDEEFF" height="2" style="stroke:#4477AA;stroke-width:0.5;" width="4" x="222" y="819.7386"/><text fill="#000000" font-family="Arial" font-size="14" lengthAdjust="spacing" textLength="158" x="61" y="841.8705">Echo Server Deployment</text></g><!--link Client to EnvoyService--><g id="link_Client_EnvoyService"><path d="M507.32,152.1986 C470.18,152.1986 423.77,152.1986 382.44,152.1986 " fill="none" id="Client-to-EnvoyService" style="stroke:#454645;stroke-width:1.0;"/><polygon fill="#454645" points="376.44,152.1986,385.44,156.1986,381.44,152.1986,385.44,148.1986,376.44,152.1986" style="stroke:#454645;stroke-width:1.0;"/><text fill="#000000" font-family="Arial" font-size="13" lengthAdjust="spacing" textLength="86" x="398.75" y="146.3925">HTTP Request</text></g><!--link EnvoyService to EnvoyDeployment--><g id="link_EnvoyService_EnvoyDeployment"><path d="M290.81,183.4986 C276.83,204.4886 261.867,226.9655 249.207,245.9655 " fill="none" id="EnvoyService-to-EnvoyDeployment" style="stroke:#454645;stroke-width:1.0;"/><polygon fill="#454645" points="245.88,250.9586,254.1992,245.687,248.6525,246.7977,247.5417,241.251,245.88,250.9586" style="stroke:#454645;stroke-width:1.0;"/></g><!--link EnvoyDeployment to Httpmgr--><g id="link_EnvoyDeployment_Httpmgr"><path d="M221.35,297.8386 C211.52,320.7886 198.7324,350.6533 188.9324,373.5333 " fill="none" id="EnvoyDeployment-to-Httpmgr" style="stroke:#454645;stroke-width:1.0;"/><polygon fill="#454645" points="186.57,379.0486,193.7904,372.3505,188.5386,374.4525,186.4366,369.2007,186.57,379.0486" style="stroke:#454645;stroke-width:1.0;"/></g><!--link Httpmgr to ExtAuthz--><g id="link_Httpmgr_ExtAuthz"><path d="M284.25,402.3986 C295.79,402.3986 301.34,402.3986 312.88,402.3986 " fill="none" id="Httpmgr-to-ExtAuthz" style="stroke:#454645;stroke-width:1.0;"/><polygon fill="#454645" points="318.88,402.3986,309.88,398.3986,313.88,402.3986,309.88,406.3986,318.88,402.3986" style="stroke:#454645;stroke-width:1.0;"/></g><!--link ExtAuthz to OPAService--><g id="link_ExtAuthz_OPAService"><path d="M386.2,425.7386 C389.04,478.3886 395.8178,604.3473 399.0378,664.2273 " fill="none" id="ExtAuthz-to-OPAService" style="stroke:#454645;stroke-width:1.0;"/><polygon fill="#454645" points="399.36,670.2186,402.871,661.0168,399.0915,665.2258,394.8825,661.4464,399.36,670.2186" style="stroke:#454645;stroke-width:1.0;"/><text fill="#000000" font-family="Arial" font-size="13" lengthAdjust="spacing" textLength="221" x="396.11" y="529.6825">1. gRPC Authorization Request (9191)</text></g><!--link OPAService to OPADeployment--><g id="link_OPAService_OPADeployment"><path d="M383.87,733.0086 C378.06,746.7986 373.77,763.4186 377,778.7386 C379.14,788.8886 380.8164,794.0534 385.0864,803.0034 " fill="none" id="OPAService-to-OPADeployment" style="stroke:#454645;stroke-width:1.0;"/><polygon fill="#454645" points="387.67,808.4186,387.4048,798.5733,385.517,803.9059,380.1844,802.0181,387.67,808.4186" style="stroke:#454645;stroke-width:1.0;"/></g><!--link OPADeployment to OPAService--><g id="link_OPADeployment_OPAService"><path d="M400.18,808.2586 C400.34,787.3586 400.5332,762.0985 400.7132,739.0085 " fill="none" id="OPADeployment-to-OPAService" style="stroke:#454645;stroke-width:1.0;"/><polygon fill="#454645" points="400.76,733.0086,396.69,741.9772,400.721,738.0085,404.6897,742.0395,400.76,733.0086" style="stroke:#454645;stroke-width:1.0;"/><text fill="#000000" font-family="Arial" font-size="13" lengthAdjust="spacing" textLength="74" x="401.53" y="775.9325">(HTTP 8181)</text></g><!--link ExtAuthz to Router--><g id="link_ExtAuthz_Router"><path d="M318.8,421.5786 C272.14,434.7186 217.36,450.9086 214,455.4486 C204.43,468.3686 204.4682,480.9347 207.9282,495.3347 " fill="none" id="ExtAuthz-to-Router" style="stroke:#454645;stroke-width:1.0;"/><polygon fill="#454645" points="209.33,501.1686,211.1166,491.4832,208.1619,496.307,203.338,493.3522,209.33,501.1686" style="stroke:#454645;stroke-width:1.0;"/><text fill="#000000" font-family="Arial" font-size="13" lengthAdjust="spacing" textLength="153" x="215" y="468.6425">2. If Authorization Granted</text></g><!--link Router to EchoService--><g id="link_Router_EchoService"><path d="M157.17,546.0986 C131.04,558.4286 102.98,576.9786 88,603.5386 C76.02,624.7886 83.1781,645.9909 95.3381,665.8609 " fill="none" id="Router-to-EchoService" style="stroke:#454645;stroke-width:1.0;"/><polygon fill="#454645" points="98.47,670.9786,97.1839,661.2141,95.8601,666.7139,90.3603,665.39,98.47,670.9786" style="stroke:#454645;stroke-width:1.0;"/><text fill="#000000" font-family="Arial" font-size="13" font-weight="bold" lengthAdjust="spacing" textLength="102" x="89" y="616.7325">Primary Routing</text></g><!--link EchoService to EchoDeployment--><g id="link_EchoService_EchoDeployment"><path d="M126.63,732.6886 C130.98,755.9186 135.7963,781.651 139.7263,802.651 " fill="none" id="EchoService-to-EchoDeployment" style="stroke:#454645;stroke-width:1.0;"/><polygon fill="#454645" points="140.83,808.5486,143.1062,798.9664,139.9103,803.634,135.2427,800.438,140.83,808.5486" style="stroke:#454645;stroke-width:1.0;"/></g><!--link Router to OPAService--><g id="link_Router_OPAService"><path d="M214.29,547.6986 C213.02,568.7486 214.67,599.9986 232,619.5386 C240.59,629.2286 247.97,622.7586 260,627.5386 C290.11,639.5086 317.0159,653.0096 343.0159,667.2296 " fill="none" id="Router-to-OPAService" style="stroke:#454645;stroke-width:1.0;"/><polygon fill="#454645" points="348.28,670.1086,342.3032,662.2806,343.8932,667.7094,338.4644,669.2994,348.28,670.1086" style="stroke:#454645;stroke-width:1.0;"/><text fill="#000000" font-family="Arial" font-size="13" font-weight="bold" lengthAdjust="spacing" textLength="135" x="233" y="616.7325">Data Access (/v1/data)</text></g><!--SRC=[dLN1Rjf04BtxAwRk8SHjGgWYGf1QYH98eggjbUROos8li8hPfUir3QduXdv03rN_ed_LVa9drcjOWqy58NbdthnvE_lMF3Dplk1Wr3e8Z30PXv5SgJMyW8_n00Q5cIijdfWHIaAiXZ3GoLmOdfX2S_ZxyyUlFx-_1q7-8EIIQRQ02KiUPbeLCarKfZGydrxWT-eXKZvbHMR6IfeF35k70orO5dg8H2sMId9fu5i0y5RfbEjXoNP-Vd7164MtVLmcJJd7FXk_4pDimd9-IDFjJYRTRXCDaN2EDC4HlFxVJx14MZR3lRqh9bnBRdWEmwp83TSXi1mexDOe3dMmn63tOIPermW8tUCT_rBmt8I4EN97SurwbxZUDYd3iLQFQyjkrnPbTmxUG6tg4zShaN3RfwnraS-otplhdRLlxk_ZiAdoYYypjLvK8ilYNT3At0cDLGfDB1GlXVcf6sEMYvcsn2G0XafAD1evxpsJk5CT7XID7WrvzAcKKot68ZDDw3jLqCG9wnvzv2QWdnqqUVzWp1GSoPcGt4uPbyqpneG_OIhRpVUoSzbfp-xYuKlezpgzJkEiiMHlqaJYptchT9JCbQN7pHmQOvSiZO5hN_FsWb2Yveggi395ioKGjUy8JqwZNkzGnvdwYZ7dz9CtTNFsmPh0NG34rR8d5NpNf89uYWZbRELVe5k9PovPHbScuNakv0opbV-8sHc9A2jFOTWxs3vqJe6ESUyLwUH2YyxvU6UcMYUFvwIazJIN-RrDr3gtx638FAu1UHcPOJ0bIzS4rNQ0HCxsVNXr2hVJFV7Nck5aqfAKtenSfXKvnboj7Rtdbpv4KQp5Wkbr1OuYwkjXgXhlj6oJAw7H3ELVJK83ghUfRJkAhj2k3WUjzghJ9lyUssR1vXy0]--></g></svg>